<svg xmlns="http://www.w3.org/2000/svg" xmlns:xlink="http://www.w3.org/1999/xlink" width="100" zoomAndPan="magnify" viewBox="0 0 810 809.999993" height="100" preserveAspectRatio="xMidYMid meet" version="1.0"><defs><clipPath id="f4eacccf75"><path fill="#fff" d="M 292.410156 243 L 517.410156 243 L 517.410156 567 L 292.410156 567 Z M 292.410156 243 " clip-rule="nonzero"/></clipPath></defs><g clip-path="url(#f4eacccf75)"><path fill="#fff" d="M 500.800781 243 L 309.019531 243 C 299.898438 243 292.421875 250.480469 292.421875 259.613281 L 292.421875 550.386719 C 292.421875 559.519531 299.898438 567 309.019531 567 L 500.800781 567 C 509.921875 567 517.398438 559.519531 517.398438 550.386719 L 517.398438 259.613281 C 517.398438 250.480469 509.921875 243 500.800781 243 Z M 511.910156 550.386719 C 511.910156 556.496094 506.902344 561.507812 500.800781 561.507812 L 309.019531 561.507812 C 302.914062 561.507812 297.910156 556.496094 297.910156 550.386719 L 297.910156 259.613281 C 297.910156 253.503906 302.914062 248.492188 309.019531 248.492188 L 500.800781 248.492188 C 506.902344 248.492188 511.910156 253.503906 511.910156 259.613281 Z M 511.910156 550.386719 " fill-opacity="1" fill-rule="nonzero"/></g><path fill="#fff" d="M 322.601562 396.761719 L 382.960938 396.761719 C 384.46875 396.761719 385.703125 395.527344 385.703125 394.015625 L 385.703125 322.628906 C 385.703125 321.117188 384.46875 319.882812 382.960938 319.882812 L 322.601562 319.882812 C 321.09375 319.882812 319.859375 321.117188 319.859375 322.628906 L 319.859375 394.015625 C 319.859375 395.527344 321.09375 396.761719 322.601562 396.761719 Z M 352.78125 358.320312 C 346.746094 358.320312 341.808594 353.378906 341.808594 347.339844 C 341.808594 341.296875 346.746094 336.355469 352.78125 336.355469 C 358.816406 336.355469 363.753906 341.296875 363.753906 347.339844 C 363.753906 353.378906 358.816406 358.320312 352.78125 358.320312 Z M 357.582031 363.8125 C 364.03125 363.8125 369.242188 369.03125 369.242188 375.484375 L 369.242188 391.269531 L 336.320312 391.269531 L 336.320312 375.484375 C 336.320312 369.03125 341.53125 363.8125 347.980469 363.8125 Z M 325.34375 325.371094 L 380.21875 325.371094 L 380.21875 391.269531 L 374.730469 391.269531 L 374.730469 375.484375 C 374.730469 368.277344 370.203125 362.027344 363.894531 359.558594 C 367.183594 356.539062 369.242188 352.210938 369.242188 347.40625 C 369.242188 338.347656 361.835938 330.933594 352.78125 330.933594 C 343.726562 330.933594 336.320312 338.347656 336.320312 347.40625 C 336.320312 352.210938 338.378906 356.539062 341.667969 359.558594 C 335.289062 362.027344 330.832031 368.277344 330.832031 375.484375 L 330.832031 391.269531 L 325.34375 391.269531 Z M 325.34375 325.371094 " fill-opacity="1" fill-rule="nonzero"/><path fill="#fff" d="M 325.140625 288.375 L 329.1875 288.375 C 333.097656 288.511719 334.878906 290.226562 335.839844 294.828125 C 336.800781 298.945312 337.484375 301.828125 338.035156 302.789062 L 342.492188 302.789062 C 341.808594 301.484375 340.984375 298.257812 339.953125 293.660156 C 339.132812 290.226562 337.621094 287.824219 335.085938 286.933594 L 335.085938 286.792969 C 338.582031 285.628906 341.328125 282.675781 341.328125 278.28125 C 341.328125 275.742188 340.367188 273.410156 338.71875 271.96875 C 336.664062 270.113281 333.714844 269.222656 329.117188 269.222656 C 326.167969 269.222656 323.011719 269.496094 320.886719 269.910156 L 320.886719 302.789062 L 325.207031 302.789062 L 325.207031 288.375 Z M 325.140625 272.929688 C 325.824219 272.722656 327.335938 272.515625 329.390625 272.515625 C 333.917969 272.585938 337.074219 274.4375 337.074219 278.761719 C 337.074219 282.539062 334.191406 285.078125 329.597656 285.078125 L 325.207031 285.078125 L 325.207031 272.929688 Z M 325.140625 272.929688 " fill-opacity="1" fill-rule="nonzero"/><path fill="#fff" d="M 366.15625 299.21875 L 351.753906 299.21875 L 351.753906 287.207031 L 364.648438 287.207031 L 364.648438 283.636719 L 351.753906 283.636719 L 351.753906 273.066406 L 365.402344 273.066406 L 365.402344 269.496094 L 347.429688 269.496094 L 347.429688 302.789062 L 366.15625 302.789062 Z M 366.15625 299.21875 " fill-opacity="1" fill-rule="nonzero"/><path fill="#fff" d="M 378.84375 299.769531 C 375.894531 299.769531 373.085938 298.808594 371.164062 297.570312 L 370.066406 301.210938 C 371.847656 302.378906 375.347656 303.339844 378.570312 303.339844 C 386.390625 303.339844 390.230469 298.875 390.230469 293.726562 C 390.230469 288.855469 387.351562 286.109375 381.726562 283.910156 C 377.128906 282.128906 375.140625 280.617188 375.140625 277.460938 C 375.140625 275.195312 376.855469 272.449219 381.382812 272.449219 C 384.402344 272.449219 386.597656 273.410156 387.695312 274.027344 L 388.859375 270.527344 C 387.351562 269.703125 384.882812 268.878906 381.519531 268.878906 C 375.074219 268.878906 370.75 272.722656 370.75 277.941406 C 370.75 282.609375 374.113281 285.421875 379.53125 287.414062 C 384.058594 289.128906 385.773438 290.914062 385.773438 294.003906 C 385.84375 297.433594 383.234375 299.769531 378.84375 299.769531 Z M 378.84375 299.769531 " fill-opacity="1" fill-rule="nonzero"/><path fill="#fff" d="M 407.996094 303.339844 C 415.199219 303.339844 420.617188 299.152344 420.617188 288.921875 L 420.617188 269.496094 L 416.296875 269.496094 L 416.296875 289.199219 C 416.296875 296.542969 413.140625 299.835938 408.203125 299.835938 C 403.742188 299.835938 400.453125 296.679688 400.453125 289.199219 L 400.453125 269.496094 L 396.128906 269.496094 L 396.128906 289.128906 C 396.0625 299.425781 401.136719 303.339844 407.996094 303.339844 Z M 407.996094 303.339844 " fill-opacity="1" fill-rule="nonzero"/><path fill="#fff" d="M 432.140625 288.511719 C 432.414062 283.5 432.6875 277.941406 432.757812 273.753906 L 432.828125 273.753906 C 433.785156 277.734375 435.089844 281.988281 436.667969 286.726562 L 442.015625 302.582031 L 445.308594 302.582031 L 451.207031 286.453125 C 452.855469 281.851562 454.296875 277.734375 455.390625 273.820312 L 455.53125 273.820312 C 455.460938 277.941406 455.804688 283.570312 456.011719 288.238281 L 456.832031 302.859375 L 461.015625 302.859375 L 458.960938 269.566406 L 453.472656 269.566406 L 447.574219 285.695312 C 446.0625 289.882812 444.898438 293.523438 444.074219 296.886719 L 444.007812 296.886719 C 443.183594 293.453125 442.015625 289.746094 440.644531 285.695312 L 434.953125 269.566406 L 429.464844 269.566406 L 427.132812 302.859375 L 431.25 302.859375 Z M 432.140625 288.511719 " fill-opacity="1" fill-rule="nonzero"/><path fill="#fff" d="M 486.464844 299.21875 L 472.058594 299.21875 L 472.058594 287.207031 L 484.953125 287.207031 L 484.953125 283.636719 L 472.058594 283.636719 L 472.058594 273.066406 L 485.710938 273.066406 L 485.710938 269.496094 L 467.738281 269.496094 L 467.738281 302.789062 L 486.464844 302.789062 Z M 486.464844 299.21875 " fill-opacity="1" fill-rule="nonzero"/><path fill="#fff" d="M 487.21875 322.628906 L 415.882812 322.628906 C 412.867188 322.628906 410.398438 325.097656 410.398438 328.117188 C 410.398438 331.140625 412.867188 333.609375 415.882812 333.609375 L 487.21875 333.609375 C 490.238281 333.609375 492.707031 331.140625 492.707031 328.117188 C 492.707031 325.097656 490.238281 322.628906 487.21875 322.628906 Z M 487.21875 322.628906 " fill-opacity="1" fill-rule="nonzero"/><path fill="#fff" d="M 415.882812 352.832031 L 454.296875 352.832031 C 455.804688 352.832031 457.039062 351.59375 457.039062 350.085938 C 457.039062 348.574219 455.804688 347.339844 454.296875 347.339844 L 415.882812 347.339844 C 414.375 347.339844 413.140625 348.574219 413.140625 350.085938 C 413.140625 351.59375 414.375 352.832031 415.882812 352.832031 Z M 415.882812 352.832031 " fill-opacity="1" fill-rule="nonzero"/><path fill="#fff" d="M 415.882812 369.304688 L 454.296875 369.304688 C 455.804688 369.304688 457.039062 368.070312 457.039062 366.558594 C 457.039062 365.050781 455.804688 363.8125 454.296875 363.8125 L 415.882812 363.8125 C 414.375 363.8125 413.140625 365.050781 413.140625 366.558594 C 413.140625 368.070312 414.375 369.304688 415.882812 369.304688 Z M 415.882812 369.304688 " fill-opacity="1" fill-rule="nonzero"/><path fill="#fff" d="M 415.882812 385.78125 L 454.296875 385.78125 C 455.804688 385.78125 457.039062 384.542969 457.039062 383.035156 C 457.039062 381.523438 455.804688 380.289062 454.296875 380.289062 L 415.882812 380.289062 C 414.375 380.289062 413.140625 381.523438 413.140625 383.035156 C 413.140625 384.542969 414.375 385.78125 415.882812 385.78125 Z M 415.882812 385.78125 " fill-opacity="1" fill-rule="nonzero"/><path fill="#fff" d="M 317.113281 446.1875 L 432.347656 446.1875 C 433.855469 446.1875 435.089844 444.949219 435.089844 443.441406 C 435.089844 441.929688 433.855469 440.695312 432.347656 440.695312 L 317.113281 440.695312 C 315.605469 440.695312 314.371094 441.929688 314.371094 443.441406 C 314.371094 444.949219 315.605469 446.1875 317.113281 446.1875 Z M 317.113281 446.1875 " fill-opacity="1" fill-rule="nonzero"/><path fill="#fff" d="M 317.113281 462.660156 L 432.347656 462.660156 C 433.855469 462.660156 435.089844 461.425781 435.089844 459.914062 C 435.089844 458.40625 433.855469 457.167969 432.347656 457.167969 L 317.113281 457.167969 C 315.605469 457.167969 314.371094 458.40625 314.371094 459.914062 C 314.371094 461.425781 315.605469 462.660156 317.113281 462.660156 Z M 317.113281 462.660156 " fill-opacity="1" fill-rule="nonzero"/><path fill="#fff" d="M 317.113281 479.136719 L 432.347656 479.136719 C 433.855469 479.136719 435.089844 477.898438 435.089844 476.390625 C 435.089844 474.878906 433.855469 473.644531 432.347656 473.644531 L 317.113281 473.644531 C 315.605469 473.644531 314.371094 474.878906 314.371094 476.390625 C 314.371094 477.898438 315.605469 479.136719 317.113281 479.136719 Z M 317.113281 479.136719 " fill-opacity="1" fill-rule="nonzero"/><path fill="#fff" d="M 317.113281 523.066406 L 421.371094 523.066406 C 422.878906 523.066406 424.117188 521.832031 424.117188 520.320312 C 424.117188 518.8125 422.878906 517.578125 421.371094 517.578125 L 317.113281 517.578125 C 315.605469 517.578125 314.371094 518.8125 314.371094 520.320312 C 314.371094 521.832031 315.605469 523.066406 317.113281 523.066406 Z M 317.113281 523.066406 " fill-opacity="1" fill-rule="nonzero"/><path fill="#fff" d="M 481.730469 534.050781 L 317.113281 534.050781 C 315.605469 534.050781 314.371094 535.285156 314.371094 536.796875 C 314.371094 538.308594 315.605469 539.542969 317.113281 539.542969 L 481.730469 539.542969 C 483.242188 539.542969 484.476562 538.308594 484.476562 536.796875 C 484.476562 535.285156 483.242188 534.050781 481.730469 534.050781 Z M 481.730469 534.050781 " fill-opacity="1" fill-rule="nonzero"/><path fill="#fff" d="M 322.601562 426.964844 L 371.988281 426.964844 C 375.003906 426.964844 377.472656 424.496094 377.472656 421.472656 C 377.472656 418.453125 375.003906 415.984375 371.988281 415.984375 L 322.601562 415.984375 C 319.582031 415.984375 317.113281 418.453125 317.113281 421.472656 C 317.113281 424.496094 319.582031 426.964844 322.601562 426.964844 Z M 322.601562 426.964844 " fill-opacity="1" fill-rule="nonzero"/><path fill="#fff" d="M 322.601562 492.863281 C 319.582031 492.863281 317.113281 495.335938 317.113281 498.355469 C 317.113281 501.375 319.582031 503.847656 322.601562 503.847656 L 371.988281 503.847656 C 375.003906 503.847656 377.472656 501.375 377.472656 498.355469 C 377.472656 495.335938 375.003906 492.863281 371.988281 492.863281 Z M 322.601562 492.863281 " fill-opacity="1" fill-rule="nonzero"/></svg>