<svg xmlns="http://www.w3.org/2000/svg" data-name="Layer 1" viewBox="0 0 100 125" x="0px" y="0px"><title>Artboard 17</title><path d="M77.86,7.85H73.47L73,6.24A7.34,7.34,0,0,0,63.88,1.3l-22,6.55H23.32A7.36,7.36,0,0,0,16,15.2v.36l-4.21,1.25a7.34,7.34,0,0,0-4.94,9.11L16,56.66V86.19a7.36,7.36,0,0,0,7.35,7.35h3.63l.07.22a7.32,7.32,0,0,0,9.11,4.93l17.32-5.15h9.89a4.3,4.3,0,0,0,3-1.25L70,88.6l18.19-5.41a7.34,7.34,0,0,0,4.94-9.12l-8-26.77V15.2A7.36,7.36,0,0,0,77.86,7.85Zm-1.2,59.54H63.33a4.28,4.28,0,0,0-4.27,4.27V85H24.52V16.4H76.66Zm-41-39.24A6.85,6.85,0,1,1,42.52,35,6.86,6.86,0,0,1,35.67,28.16Zm-4.73,15a5.71,5.71,0,0,1,3.68-6,5.78,5.78,0,0,1,2.07-.35h1.85a.68.68,0,0,1,.54.26l3.23,4c.11.14.22.14.33,0l3.23-4a.69.69,0,0,1,.54-.26h1.93a5.86,5.86,0,0,1,2.07.35,5.71,5.71,0,0,1,3.69,6h0l-.49,3.71a1.86,1.86,0,0,1-1.85,1.62H33.27a1.86,1.86,0,0,1-1.85-1.62ZM55.44,24a2.74,2.74,0,0,1,2.74-2.74h9.68a2.74,2.74,0,0,1,0,5.47H58.18A2.74,2.74,0,0,1,55.44,24ZM70.6,34.73a2.74,2.74,0,0,1-2.74,2.74H61.4a2.74,2.74,0,1,1,0-5.47h6.46A2.74,2.74,0,0,1,70.6,34.73Zm0,10.68a2.74,2.74,0,0,1-2.74,2.74H61.4a2.74,2.74,0,1,1,0-5.47h6.46A2.74,2.74,0,0,1,70.6,45.41Zm-40,10.68a2.74,2.74,0,0,1,2.74-2.74H67.86a2.74,2.74,0,1,1,0,5.47H33.32A2.74,2.74,0,0,1,30.58,56.09Zm0,10.68A2.74,2.74,0,0,1,33.32,64H51.4a2.74,2.74,0,1,1,0,5.47H33.32A2.74,2.74,0,0,1,30.58,66.77Zm0,10.68a2.74,2.74,0,0,1,2.74-2.74H51.4a2.74,2.74,0,1,1,0,5.47H33.32A2.74,2.74,0,0,1,30.58,77.45Z"/><text x="0" y="115" fill="#000000" font-size="5px" font-weight="bold" font-family="'Helvetica Neue', Helvetica, Arial-Unicode, Arial, Sans-serif">Created by Gregor Cresnar</text><text x="0" y="120" fill="#fff" font-size="5px" font-weight="bold" font-family="'Helvetica Neue', Helvetica, Arial-Unicode, Arial, Sans-serif">from the Noun Project</text></svg>